<svg width="30" height="30" viewBox="0 0 30 30" fill="none" xmlns="http://www.w3.org/2000/svg">
<path d="M23.75 12.6764C23.75 13.3762 23.1912 13.9441 22.5 13.9441H21.25V15.2117C21.25 15.9115 20.6912 16.4794 20 16.4794C19.3088 16.4794 18.75 15.9115 18.75 15.2117V13.9441H17.5C16.8088 13.9441 16.25 13.3762 16.25 12.6764C16.25 11.9767 16.8088 11.4088 17.5 11.4088H18.75V10.1411C18.75 9.44141 19.3088 8.8735 20 8.8735C20.6912 8.8735 21.25 9.44141 21.25 10.1411V11.4088H22.5C23.1912 11.4088 23.75 11.9767 23.75 12.6764ZM10.625 13.9441C8.4025 13.9441 6.56375 15.5971 6.2575 17.747C6.2275 17.9536 6.2125 19.0146 7.47375 19.0146H13.7762C15.0363 19.0146 15.0213 17.9536 14.9925 17.747C14.6863 15.5971 12.8475 13.9441 10.625 13.9441ZM10.625 12.6764C12.3512 12.6764 13.75 11.2579 13.75 9.50732C13.75 7.75671 12.3512 6.33821 10.625 6.33821C8.89875 6.33821 7.5 7.75671 7.5 9.50732C7.5 11.2579 8.89875 12.6764 10.625 12.6764ZM30 6.97204V18.3808C30 22.2256 26.915 25.3529 23.125 25.3529H21.66L17.025 29.2395C15.8687 30.2777 14.085 30.2434 12.925 29.1951L8.425 25.3529H6.875C3.085 25.3529 0 22.2256 0 18.3808V6.97204C0 3.12728 3.085 0 6.875 0H23.125C26.915 0 30 3.12728 30 6.97204ZM26.25 6.97204C26.25 5.22522 24.8487 3.80293 23.125 3.80293H6.875C5.15125 3.80293 3.75 5.22522 3.75 6.97204V18.3808C3.75 20.1276 5.15125 21.5499 6.875 21.5499H9.11C9.5525 21.5499 9.98 21.7084 10.3188 21.9974L15.005 26.0006L19.79 21.986C20.1275 21.7046 20.5487 21.5499 20.985 21.5499H23.125C24.8487 21.5499 26.25 20.1276 26.25 18.3808V6.97204Z" fill="#00F2C3"/>
</svg>
