<svg width="30" height="30" viewBox="0 0 30 30" fill="none" xmlns="http://www.w3.org/2000/svg">
<path d="M20.6097 13.4076C20.8072 15.6326 19.0597 17.5001 16.8747 17.5001H12.7573C11.7423 17.5001 11.0048 16.5113 11.3273 15.5476C11.9998 13.5326 13.2435 10.6114 15.986 10.0839C18.1797 9.66136 20.4122 11.1826 20.6097 13.4076ZM22.7071 11.5576L29.1145 5.15013C30.2933 3.97264 30.2958 2.06265 29.1183 0.883902C27.9421 -0.293592 26.0346 -0.294842 24.8571 0.881402C24.8171 0.921402 18.666 7.79387 18.666 7.79387C20.5297 8.35636 22.0247 9.74886 22.7071 11.5576ZM28.1246 11.2501C27.0896 11.2501 26.2496 12.0901 26.2496 13.1251V16.8751C26.2496 18.5988 24.8484 20.0001 23.1246 20.0001H6.87489C5.15242 20.0001 3.74994 18.5988 3.74994 16.8751V9.37511C3.74994 7.65137 5.15242 6.25012 6.87489 6.25012H15.6248C16.6597 6.25012 17.4997 5.41013 17.4997 4.37513C17.4997 3.34014 16.6597 2.50014 15.6248 2.50014H6.87489C3.0837 2.50014 0 5.58513 0 9.37511V16.8751C0 20.665 3.0837 23.75 6.87489 23.75H13.1248V26.25H9.37485C8.33862 26.25 7.49988 27.09 7.49988 28.125C7.49988 29.16 8.33862 30 9.37485 30H20.6247C21.6597 30 22.4996 29.16 22.4996 28.125C22.4996 27.09 21.6597 26.25 20.6247 26.25H16.8747V23.75H23.1246C26.9146 23.75 29.9995 20.665 29.9995 16.8751V13.1251C29.9995 12.0901 29.1595 11.2501 28.1246 11.2501Z" fill="#00F2C3"/>
</svg>
