<svg width="30" height="30" viewBox="0 0 30 30" fill="none" xmlns="http://www.w3.org/2000/svg">
<path d="M23.75 17.5002C22.837 17.5036 21.936 17.7082 21.1111 18.0995C20.2862 18.4908 19.5577 19.0591 18.9775 19.7639L12.2275 16.7165C12.3992 16.1602 12.491 15.5824 12.5 15.0003C12.4919 14.4245 12.4031 13.8527 12.2362 13.3016L18.9787 10.2391C19.9248 11.3525 21.2328 12.097 22.6732 12.3419C24.1136 12.5867 25.5942 12.3163 26.855 11.5782C28.1159 10.84 29.0763 9.68122 29.5678 8.30534C30.0592 6.92946 30.0502 5.42443 29.5423 4.05453C29.0344 2.68463 28.0602 1.53744 26.7906 0.814415C25.521 0.0913847 24.0373 -0.161263 22.6 0.100836C21.1626 0.362936 19.8636 1.12302 18.9309 2.24763C17.9983 3.37224 17.4916 4.78947 17.5 6.25046C17.5 6.42795 17.5375 6.59545 17.5525 6.7692L10.125 10.1404C9.03 9.24809 7.66251 8.75757 6.25 8.75041C4.5924 8.75041 3.00268 9.40888 1.83058 10.581C0.65848 11.753 0 13.3427 0 15.0003C0 16.6579 0.65848 18.2475 1.83058 19.4196C3.00268 20.5917 4.5924 21.2502 6.25 21.2502C7.6564 21.2444 9.01882 20.7594 10.1125 19.8752L17.5525 23.2339C17.5375 23.4076 17.5 23.5739 17.5 23.7501C17.5 24.9862 17.8666 26.1946 18.5533 27.2224C19.2401 28.2502 20.2162 29.0512 21.3582 29.5243C22.5003 29.9973 23.7569 30.1211 24.9693 29.8799C26.1817 29.6388 27.2953 29.0435 28.1694 28.1695C29.0435 27.2954 29.6387 26.1818 29.8799 24.9694C30.1211 23.7571 29.9973 22.5004 29.5242 21.3584C29.0512 20.2164 28.2501 19.2403 27.2223 18.5535C26.1945 17.8668 24.9861 17.5002 23.75 17.5002ZM23.75 3.75051C24.2445 3.75051 24.7278 3.89713 25.1389 4.17182C25.55 4.44652 25.8705 4.83696 26.0597 5.29377C26.2489 5.75057 26.2984 6.25323 26.202 6.73817C26.1055 7.22312 25.8674 7.66857 25.5178 8.01819C25.1681 8.36782 24.7227 8.60591 24.2377 8.70237C23.7528 8.79883 23.2501 8.74933 22.7933 8.56011C22.3365 8.3709 21.946 8.05047 21.6713 7.63936C21.3966 7.22824 21.25 6.7449 21.25 6.25046C21.25 5.58743 21.5134 4.95156 21.9822 4.48272C22.4511 4.01389 23.087 3.75051 23.75 3.75051ZM6.25 17.5002C5.75555 17.5002 5.2722 17.3536 4.86107 17.0789C4.44995 16.8042 4.12952 16.4138 3.9403 15.957C3.75108 15.5002 3.70157 14.9975 3.79804 14.5126C3.8945 14.0276 4.1326 13.5822 4.48223 13.2326C4.83186 12.8829 5.27732 12.6448 5.76227 12.5484C6.24723 12.4519 6.74989 12.5014 7.20671 12.6906C7.66352 12.8799 8.05397 13.2003 8.32867 13.6114C8.60338 14.0225 8.75 14.5058 8.75 15.0003C8.75 15.6633 8.48661 16.2992 8.01777 16.768C7.54893 17.2369 6.91304 17.5002 6.25 17.5002ZM23.75 26.2501C23.2555 26.2501 22.7722 26.1035 22.3611 25.8288C21.9499 25.5541 21.6295 25.1636 21.4403 24.7068C21.2511 24.25 21.2016 23.7473 21.298 23.2624C21.3945 22.7775 21.6326 22.332 21.9822 21.9824C22.3319 21.6328 22.7773 21.3947 23.2623 21.2982C23.7472 21.2017 24.2499 21.2512 24.7067 21.4405C25.1635 21.6297 25.554 21.9501 25.8287 22.3612C26.1034 22.7723 26.25 23.2557 26.25 23.7501C26.25 24.4131 25.9866 25.049 25.5178 25.5179C25.0489 25.9867 24.413 26.2501 23.75 26.2501Z" fill="#00F2C3"/>
</svg>
