<svg width="30" height="30" viewBox="0 0 30 30" fill="none" xmlns="http://www.w3.org/2000/svg">
<path d="M29.9699 15C29.9699 23.275 23.2517 30 14.985 30C6.71826 30 0 23.275 0 15C0 6.725 6.71826 0 14.985 0C15.8966 0 16.8206 0.0875 17.7072 0.25C18.3816 0.375 18.8311 1.025 18.7062 1.7C18.5814 2.375 17.932 2.825 17.2577 2.7C16.5209 2.5625 15.7467 2.5 14.985 2.5C8.10437 2.5 2.49749 8.1125 2.49749 15C2.49749 21.8875 8.10437 27.5 14.985 27.5C21.8656 27.5 27.4724 21.8875 27.4724 15C27.4724 14.2375 27.3975 13.475 27.2726 12.725C27.1478 12.05 27.5973 11.4 28.2716 11.275C28.9584 11.15 29.5953 11.6 29.7202 12.275C29.8825 13.1625 29.9699 14.0875 29.9699 15ZM16.0589 7.575C16.7457 7.675 17.3701 7.2 17.47 6.5125C17.5699 5.825 17.0954 5.2 16.4085 5.1C15.934 5.0375 15.4595 5 14.985 5C9.47799 5 4.99499 9.4875 4.99499 15C4.99499 20.5125 9.47799 25 14.985 25C20.4919 25 24.9749 20.5125 24.9749 15C24.9749 14.525 24.9375 14.05 24.875 13.575C24.7751 12.8875 24.1508 12.4125 23.464 12.5125C22.7772 12.6125 22.3026 13.2375 22.4025 13.925C22.4525 14.275 22.4774 14.6375 22.4774 15C22.4774 19.1375 19.1183 22.5 14.985 22.5C10.8516 22.5 7.49248 19.1375 7.49248 15C7.49248 10.8625 10.8516 7.5 14.985 7.5C15.3471 7.5 15.7092 7.525 16.0589 7.575ZM13.3241 13.1375C13.8361 12.675 13.8861 11.8875 13.424 11.375C12.962 10.8625 12.1753 10.8125 11.6633 11.275C10.6019 12.225 10.0025 13.5875 10.0025 15C10.0025 17.7625 12.2377 20 14.9975 20C16.421 20 17.7697 19.3875 18.7187 18.3375C19.1808 17.825 19.1308 17.0375 18.6188 16.575C18.1068 16.1125 17.3201 16.1625 16.8581 16.675C16.3836 17.2 15.7092 17.5125 14.9975 17.5125C13.6238 17.5125 12.5 16.3875 12.5 15.0125C12.5 14.3 12.7997 13.625 13.3366 13.15L13.3241 13.1375ZM15.3596 12.8625C14.8726 13.35 14.8726 14.1375 15.3596 14.625C15.6093 14.875 15.9215 14.9875 16.2462 14.9875C16.5709 14.9875 16.8831 14.8625 17.1328 14.625L23.0144 8.7375H26.2487C26.5858 8.7375 26.898 8.6 27.1353 8.375L29.6328 5.875C29.9949 5.5125 30.0948 4.975 29.9075 4.5125C29.7202 4.05 29.2581 3.7375 28.7586 3.7375H26.2612V1.25C26.2612 0.75 25.9615 0.2875 25.4869 0.1C25.0124 -0.1 24.4879 0.0125 24.1258 0.375L21.6283 2.875C21.391 3.1125 21.2662 3.425 21.2662 3.7625V7L15.3846 12.8875L15.3596 12.8625Z" fill="#00F2C3"/>
</svg>
