<svg width="30" height="30" viewBox="0 0 30 30" fill="none" xmlns="http://www.w3.org/2000/svg">
<path d="M29.2649 20.1117L18.4233 15.1819C18.3858 15.1644 18.3483 15.1506 18.3108 15.1369C17.4009 14.8269 16.4135 15.0556 15.7336 15.7356C15.0536 16.4156 14.8249 17.403 15.1811 18.4242L20.1107 29.2675C20.3094 29.7063 20.7431 29.9912 21.2256 30H21.2493C21.7218 30 22.1555 29.7325 22.368 29.3088L24.6815 24.6815L29.3086 22.3678C29.7398 22.1516 30.0085 21.7091 29.9998 21.2266C29.991 20.7454 29.7061 20.3117 29.2674 20.1117H29.2649ZM16.1385 27.4476C15.9236 27.4664 15.7073 27.4801 15.4886 27.4889C14.6537 26.6626 12.4764 24.3415 10.959 21.2491H11.8739C12.5639 21.2491 13.1238 20.6904 13.1238 19.9992C13.1238 19.3079 12.5639 18.7492 11.8739 18.7492H9.9616C9.59788 17.5593 9.37415 16.2993 9.37415 14.9994C9.37415 13.6994 9.59913 12.4407 9.9641 11.2495H20.0344C20.1819 11.7333 20.3069 12.2282 20.4032 12.7332C20.5331 13.4119 21.1893 13.8594 21.8643 13.7269C22.5417 13.5982 22.9867 12.9432 22.8579 12.2657C22.7929 11.922 22.7154 11.5833 22.6292 11.2495H26.8701C26.8863 11.2495 26.9038 11.2495 26.9201 11.2495C27.2938 12.4345 27.495 13.6944 27.495 15.0006C27.495 15.3844 27.4775 15.7631 27.4438 16.1381C27.3825 16.8255 27.8887 17.433 28.5762 17.4955C29.2661 17.563 29.8723 17.0505 29.9335 16.3631C29.9735 15.9143 29.9948 15.4594 29.9948 15.0006C29.9973 6.72847 23.2691 0 14.9986 0C6.72814 0 0 6.72847 0 14.9994C0 23.2703 6.72814 29.9987 14.9974 29.9987C15.4561 29.9987 15.9098 29.9775 16.3573 29.9375C17.0447 29.8763 17.5534 29.27 17.4922 28.5813C17.4309 27.8951 16.8272 27.3876 16.1385 27.4476ZM7.36434 18.7492H3.12472C3.10847 18.7492 3.09222 18.7492 3.07472 18.7492C2.70101 17.5643 2.49977 16.3043 2.49977 14.9981C2.49977 13.6919 2.70101 12.432 3.07472 11.247C3.09097 11.247 3.10722 11.247 3.12472 11.247H7.36434C7.05811 12.4407 6.87438 13.6957 6.87438 14.9969C6.87438 16.2981 7.05686 17.553 7.36434 18.7467V18.7492ZM10.9653 8.74964C12.2414 6.15349 13.9837 4.09483 15.0011 3.01487C16.0198 4.09358 17.7621 6.14849 19.0383 8.74964H10.9653ZM25.8202 8.74964H21.7855C20.7969 6.39223 19.4257 4.38982 18.2459 2.92863C21.4693 3.79734 24.1816 5.92475 25.8202 8.74964ZM11.7489 2.92988C10.569 4.39107 9.19667 6.39348 8.20926 8.74964H4.17712C5.81447 5.92475 8.52548 3.79734 11.7489 2.92988ZM4.17712 21.2491H8.20926C9.19667 23.6065 10.569 25.6077 11.7489 27.0689C8.52673 26.2002 5.81572 24.0727 4.17712 21.2491Z" fill="#00F2C3"/>
</svg>
